<?xml version="1.0" encoding="iso-8859-1"?>
<svg version="1.1" id="Capa_1" xmlns="http://www.w3.org/2000/svg" xmlns:xlink="http://www.w3.org/1999/xlink" x="0px" y="0px"
	 viewBox="0 0 490 490" style="enable-background:new 0 0 490 490;" xml:space="preserve">
<g>
	<path d="M245,490c135.31,0,245-109.689,245-245C490,109.69,380.31,0,245,0S0,109.69,0,245C0,380.311,109.69,490,245,490z
		 M245,30.625c118.206,0,214.375,96.169,214.375,214.375c0,118.207-96.169,214.375-214.375,214.375S30.625,363.207,30.625,245
		C30.625,126.794,126.794,30.625,245,30.625z"/>
	<polygon points="128.297,222.899 146.077,289.622 165.188,289.622 186.871,200.378 168.732,200.378 155.034,262.72
		139.378,200.378 117.949,200.378 101.635,261.673 88.177,200.378 69.724,200.378 91.033,289.622 110.577,289.622 	"/>
	<polygon points="228.262,289.622 245.982,222.899 263.762,289.622 282.873,289.622 304.556,200.378 286.417,200.378
		272.719,262.72 257.063,200.378 235.634,200.378 219.32,261.673 205.862,200.378 187.409,200.378 208.718,289.622 	"/>
	<polygon points="345.947,289.622 363.667,222.899 381.447,289.622 400.558,289.622 422.241,200.378 404.102,200.378
		390.404,262.72 374.748,200.378 353.319,200.378 337.005,261.673 323.547,200.378 305.094,200.378 326.403,289.622 	"/>
</g>
</svg>